<?xml version="1.0" encoding="UTF-8" standalone="no"?>
<svg
   xmlns:dc="http://purl.org/dc/elements/1.1/"
   xmlns:cc="http://creativecommons.org/ns#"
   xmlns:rdf="http://www.w3.org/1999/02/22-rdf-syntax-ns#"
   xmlns:svg="http://www.w3.org/2000/svg"
   xmlns="http://www.w3.org/2000/svg"
   xmlns:sodipodi="http://sodipodi.sourceforge.net/DTD/sodipodi-0.dtd"
   xmlns:inkscape="http://www.inkscape.org/namespaces/inkscape"
   version="1.1"
   x="0"
   y="0"
   width="657.713"
   height="464.818"
   viewBox="0, 0, 657.713, 464.818"
   id="svg6535"
   sodipodi:docname="campfire_Revisited.svg"
   inkscape:version="0.92.4 (5da689c313, 2019-01-14)">
  <metadata
     id="metadata6541">
    <rdf:RDF>
      <cc:Work
         rdf:about="">
        <dc:format>image/svg+xml</dc:format>
        <dc:type
           rdf:resource="http://purl.org/dc/dcmitype/StillImage" />
        <dc:title></dc:title>
      </cc:Work>
    </rdf:RDF>
  </metadata>
  <defs
     id="defs6539" />
  <sodipodi:namedview
     pagecolor="#ffffff"
     bordercolor="#666666"
     borderopacity="1"
     objecttolerance="10"
     gridtolerance="10"
     guidetolerance="10"
     inkscape:pageopacity="0"
     inkscape:pageshadow="2"
     inkscape:window-width="1872"
     inkscape:window-height="995"
     id="namedview6537"
     showgrid="false"
     inkscape:snap-global="false"
     inkscape:zoom="0.4852804"
     inkscape:cx="137.83155"
     inkscape:cy="236.67185"
     inkscape:window-x="0"
     inkscape:window-y="23"
     inkscape:window-maximized="0"
     inkscape:current-layer="layer9" />
  <g
     inkscape:groupmode="layer"
     id="layer5"
     inkscape:label="Layer 1"
     style="display:inline">
    <g
       transform="translate(0,-1.0249817e-6)"
       id="Layer_1">
      <g
         id="path71">
        <path
           style="fill:#000000"
           inkscape:connector-curvature="0"
           d="m 262.909,322.417 c -29.12,-7.2 -55.36,-11.816 -78.64,-16.128 -23.92,-3.752 -44.64,-7.2 -63.36,-8.064 31.12,6.048 58.16,10.656 82.32,14.968 23.68,3.76 43.52,7.208 59.68,9.224 z"
           id="path6401" />
        <path
           style="fill-opacity:0;stroke:#000000;stroke-width:0.28799999;stroke-miterlimit:10"
           inkscape:connector-curvature="0"
           d="m 262.909,322.417 c -29.12,-7.2 -55.36,-11.816 -78.64,-16.128 -23.92,-3.752 -44.64,-7.2 -63.36,-8.064 31.12,6.048 58.16,10.656 82.32,14.968 23.68,3.76 43.52,7.208 59.68,9.224 z"
           stroke-miterlimit="10"
           id="path6403" />
      </g>
      <g
         id="path73">
        <path
           style="fill:#000000"
           inkscape:connector-curvature="0"
           d="m 455.869,301.969 c 9.76,-18.72 13.76,-35.424 13.2,-50.112 -0.56,-15.264 -5.2,-25.344 -18.4,-40.312 -15.04,-16.144 -48.96,-34.856 -66.24,-52.704 -17.6,-18.44 -33.44,-36 -35.2,-55.872 -2.24,-21.032 5.76,-42.048 23.04,-66.24 -19.84,15.832 -31.92,31.104 -39.68,46.944 -7.84,15.264 0.24,30.232 -4.64,46.08 -5.52,15.84 -14.08,31.392 -25.92,47.816 12.08,-19.016 16.16,-37.736 12.08,-55.016 -5.76,-18.144 -35.68,-31.096 -37.68,-50.968 -1.44,-21.032 8.64,-43.784 30.24,-71.432 -19.92,0.576 -37.76,11.808 -52.48,33.696 -16.4,22.168 -35.44,65.088 -38,95.328 -2.88,29.376 4.88,54.44 23.36,78.624 -17.04,4.032 -30,0.28 -40.08,-13.528 -10.32,-14.408 -7.2,-54.72 -20.4,-67.688 -13.52,-12.672 -33.12,-17.28 -59.92,-10.656 25.04,9.216 37.12,20.456 40.56,34.856 1.76,13.232 -25.28,23.328 -25.6,48.952 0.56,25.624 8.32,60.184 26.48,104.832 32.88,25.064 72.64,37.44 122.72,37.16 49.52,-0.592 106.32,-13.84 172.56,-39.76 z"
           id="path6406" />
        <path
           style="fill-opacity:0;stroke:#000000;stroke-width:0.28799999;stroke-miterlimit:10"
           inkscape:connector-curvature="0"
           d="m 455.869,301.969 c 9.76,-18.72 13.76,-35.424 13.2,-50.112 -0.56,-15.264 -5.2,-25.344 -18.4,-40.312 -15.04,-16.144 -48.96,-34.856 -66.24,-52.704 -17.6,-18.44 -33.44,-36 -35.2,-55.872 -2.24,-21.032 5.76,-42.048 23.04,-66.24 -19.84,15.832 -31.92,31.104 -39.68,46.944 -7.84,15.264 0.24,30.232 -4.64,46.08 -5.52,15.84 -14.08,31.392 -25.92,47.816 12.08,-19.016 16.16,-37.736 12.08,-55.016 -5.76,-18.144 -35.68,-31.096 -37.68,-50.968 -1.44,-21.032 8.64,-43.784 30.24,-71.432 -19.92,0.576 -37.76,11.808 -52.48,33.696 -16.4,22.168 -35.44,65.088 -38,95.328 -2.88,29.376 4.88,54.44 23.36,78.624 -17.04,4.032 -30,0.28 -40.08,-13.528 -10.32,-14.408 -7.2,-54.72 -20.4,-67.688 -13.52,-12.672 -33.12,-17.28 -59.92,-10.656 25.04,9.216 37.12,20.456 40.56,34.856 1.76,13.232 -25.28,23.328 -25.6,48.952 0.56,25.624 8.32,60.184 26.48,104.832 32.88,25.064 72.64,37.44 122.72,37.16 49.52,-0.592 106.32,-13.84 172.56,-39.76 z"
           stroke-miterlimit="10"
           id="path6408" />
      </g>
      <g
         id="path75">
        <path
           style="fill:#ffff00"
           inkscape:connector-curvature="0"
           d="m 454.109,290.729 c 5.44,-14.392 8.32,-27.64 6.32,-39.736 -2.56,-12.968 -8.32,-23.328 -17.28,-34.28 -10.4,-11.216 -24.16,-20.44 -38,-32.248 -13.52,-13.528 -32.88,-28.8 -42.32,-42.328 -10.08,-14.128 -18.48,-24.488 -19.6,-37.736 -2.32,-13.528 0.56,-27.656 7.52,-42.344 -6.96,10.656 -11.28,21.608 -15.28,35.144 -3.76,12.968 0.56,24.488 -7.2,43.488 -8.96,18.44 -23.6,40.032 -44.08,65.952 11.2,-19.576 17.84,-36 21.04,-50.392 2.88,-14.688 2,-27.08 -2.64,-37.16 -5.12,-11.232 -21.84,-16.424 -26.72,-26.504 -6.4,-10.656 -8.4,-22.168 -7.2,-35.704 1.44,-13.832 6,-27.656 14.96,-43.784 -15.28,13.824 -26.24,29.088 -36,46.936 -9.52,17.856 -16.72,38.592 -20.48,57.608 -4.32,17.856 -6.88,34.84 -3.44,49.832 2.88,13.816 13.52,23.032 20.72,35.424 6.32,11.512 14.72,24.768 17.28,35.424 1.44,9.8 -2,17.28 -9.2,23.608 5.44,-19.296 3.44,-33.688 -3.76,-42.048 -7.76,-8.64 -31.92,-3.736 -42.64,-9.784 -10.88,-6.92 -18.96,-18.16 -23.04,-30.248 -4.88,-13.248 2.08,-36.28 -3.68,-45.8 -6.4,-10.08 -17.28,-13.528 -32.88,-11.512 12.4,7.784 19.28,17.28 20.72,25.344 0.64,7.488 -7.44,15.56 -11.76,25.344 -4.32,8.936 -14.16,16.128 -13.84,33.704 -0.56,17.56 6,57.016 13.2,71.704 6.64,13.544 18.48,8.36 26.56,8.936 6,-0.576 6.88,-13.248 16.96,-10.376 10.08,2.016 35.12,20.16 46.4,22.168 10.32,0.296 8,-16.704 19.52,-15.248 11.52,1.144 33.44,19.28 48.96,23.328 14.72,2.872 30.56,-3.168 40.96,-3.752 9.76,-0.856 18.08,3.752 18.4,-1.736 -1.2,-8.064 -23.36,-36.28 -21.04,-39.16 1.76,-2.312 21.36,21.592 34.32,25.048 12.32,1.44 28.48,-12.672 40.56,-12.376 11.28,0.296 20.48,5.768 27.68,15.264 z"
           id="path6411" />
        <path
           style="fill-opacity:0;stroke:#000000;stroke-width:0.28799999;stroke-miterlimit:10"
           inkscape:connector-curvature="0"
           d="m 454.109,290.729 c 5.44,-14.392 8.32,-27.64 6.32,-39.736 -2.56,-12.968 -8.32,-23.328 -17.28,-34.28 -10.4,-11.216 -24.16,-20.44 -38,-32.248 -13.52,-13.528 -32.88,-28.8 -42.32,-42.328 -10.08,-14.128 -18.48,-24.488 -19.6,-37.736 -2.32,-13.528 0.56,-27.656 7.52,-42.344 -6.96,10.656 -11.28,21.608 -15.28,35.144 -3.76,12.968 0.56,24.488 -7.2,43.488 -8.96,18.44 -23.6,40.032 -44.08,65.952 11.2,-19.576 17.84,-36 21.04,-50.392 2.88,-14.688 2,-27.08 -2.64,-37.16 -5.12,-11.232 -21.84,-16.424 -26.72,-26.504 -6.4,-10.656 -8.4,-22.168 -7.2,-35.704 1.44,-13.832 6,-27.656 14.96,-43.784 -15.28,13.824 -26.24,29.088 -36,46.936 -9.52,17.856 -16.72,38.592 -20.48,57.608 -4.32,17.856 -6.88,34.84 -3.44,49.832 2.88,13.816 13.52,23.032 20.72,35.424 6.32,11.512 14.72,24.768 17.28,35.424 1.44,9.8 -2,17.28 -9.2,23.608 5.44,-19.296 3.44,-33.688 -3.76,-42.048 -7.76,-8.64 -31.92,-3.736 -42.64,-9.784 -10.88,-6.92 -18.96,-18.16 -23.04,-30.248 -4.88,-13.248 2.08,-36.28 -3.68,-45.8 -6.4,-10.08 -17.28,-13.528 -32.88,-11.512 12.4,7.784 19.28,17.28 20.72,25.344 0.64,7.488 -7.44,15.56 -11.76,25.344 -4.32,8.936 -14.16,16.128 -13.84,33.704 -0.56,17.56 6,57.016 13.2,71.704 6.64,13.544 18.48,8.36 26.56,8.936 6,-0.576 6.88,-13.248 16.96,-10.376 10.08,2.016 35.12,20.16 46.4,22.168 10.32,0.296 8,-16.704 19.52,-15.248 11.52,1.144 33.44,19.28 48.96,23.328 14.72,2.872 30.56,-3.168 40.96,-3.752 9.76,-0.856 18.08,3.752 18.4,-1.736 -1.2,-8.064 -23.36,-36.28 -21.04,-39.16 1.76,-2.312 21.36,21.592 34.32,25.048 12.32,1.44 28.48,-12.672 40.56,-12.376 11.28,0.296 20.48,5.768 27.68,15.264 z"
           stroke-miterlimit="10"
           id="path6413" />
        <path
           style="fill:#f69d12;fill-opacity:1"
           d="m 341.32812,164.28906 c 10e-6,0 -0.13452,40.33837 -9.83593,50.99805 -9.50104,10.43953 -26.61923,12.76889 -34.60547,24.4082 -9.26476,13.50265 -14.77223,36.70427 -17.4043,50.55078 10.88163,6.00014 23.65905,14.56437 33.7461,17.19532 14.72,2.872 30.56093,-3.16796 40.96093,-3.75196 9.76,-0.856 18.08039,3.75167 18.40039,-1.73633 -1.2,-8.064 -23.36101,-36.28015 -21.04101,-39.16015 1.76,-2.312 21.36031,21.59283 34.32031,25.04883 8.45324,0.98804 18.71409,-5.34479 28.22461,-9.32227 3.76779,-42.73044 -37.77393,-76.50561 -72.76563,-114.23047 z"
           transform="translate(0,1.0249817e-6)"
           id="path10780"
           inkscape:connector-curvature="0" />
        <path
           style="fill:#f69d12;fill-opacity:1"
           d="m 170.51953,173.49219 c -26.47852,40.86753 -14.23829,82.72741 12.94727,113.3164 4.296,-2.805 6.09082,-12.12025 14.88281,-9.61523 6.93031,1.38606 20.93227,10.39517 32.67187,16.54297 7.2996,-26.06101 17.8332,-58.27835 -5.63671,-61.25781 -54.92668,-6.97282 -49.09156,-17.48421 -54.86524,-58.98633 z"
           transform="translate(0,1.0249817e-6)"
           id="path10770"
           inkscape:connector-curvature="0" />
        <path
           style="fill:#f69d12;fill-opacity:1"
           d="m 253.86328,84.978516 c 0,0 -12.61462,34.586064 -13.79492,52.708984 -0.88869,13.64538 0.45292,27.85515 5.15039,40.69727 5.20326,14.22485 20.26579,23.64878 24.72852,38.12304 4.45354,14.44446 3.33772,32.68807 -3.70508,46.0625 -7.81891,14.84832 -26.30585,16.89602 -36.26953,30.60547 5.73982,3.05108 11.0234,5.51764 14.77539,6.18555 10.32,0.296 8.00148,-16.70405 19.52148,-15.24805 11.52,1.144 33.56778,20.05288 49.08778,24.10088 1.72353,0.60203 17.8261,0.24125 17.23347,-0.56549 -27.38187,-41.10136 -50.88354,-62.00915 -50.46888,-107.62673 0.16813,-9.71261 -0.30391,-18.66476 0.64372,-28.33249 0.93946,-9.58429 3.61573,-24.12459 0.45313,-33.2207 -5.73334,-16.48992 -29.43078,-29.13102 -27.35547,-53.490234 z"
           transform="translate(0,1.0249817e-6)"
           id="path10775"
           inkscape:connector-curvature="0"
           sodipodi:nodetypes="cssscccccccssc" />
        <path
           style="fill:#f23515;fill-opacity:1"
           d="m 172.32617,230.93359 c 1.24802,19.72509 10.27421,34.41327 19.91406,46.61524 1.60336,-0.81349 3.56207,-1.08125 6.10938,-0.35547 4.20532,0.84106 11.04165,4.51253 18.36914,8.625 2.48781,-15.73444 2.8304,-30.98349 -7.44727,-33.17578 -20.75065,-4.42624 -21.27608,-1.82845 -36.94531,-21.70899 z"
           transform="translate(0,1.0249817e-6)"
           id="path10787"
           inkscape:connector-curvature="0" />
        <path
           style="fill:#f23515;fill-opacity:1"
           d="M 278.67188,238.9668 C 274.16504,269.61981 256.098,280.08577 236,296.20312 c 3.34366,1.56223 6.36314,2.73366 8.74805,3.15821 10.32,0.296 8.00148,-16.70405 19.52148,-15.24805 11.52,1.144 33.43899,19.28013 48.95899,23.32813 6.2495,1.21933 12.69836,0.8275 18.8496,-0.0664 -31.39925,-17.14681 -45.94508,-33.88994 -53.40624,-68.4082 z"
           transform="translate(0,1.0249817e-6)"
           id="path10792"
           inkscape:connector-curvature="0" />
        <path
           style="fill:#f23515;fill-opacity:1"
           d="m 360.50977,223.24805 c 10e-6,9.10694 -8.45111,22.35956 -16.26563,30.96875 -7.65312,8.43136 -19.58481,9.66235 -28.46289,16.79882 -10.95595,8.80675 -17.83727,17.72636 -18.37891,29.4961 5.5575,3.04796 11.00104,5.67117 15.82618,6.92969 14.72,2.872 30.56093,-3.16796 40.96093,-3.75196 9.76,-0.856 18.08039,3.75167 18.40039,-1.73633 -1.2,-8.064 -23.36101,-36.28015 -21.04101,-39.16015 1.76,-2.312 21.36031,21.59283 34.32031,25.04883 0.70098,0.0819 1.41624,0.10699 2.14063,0.0937 2.94604,-22.96714 -6.55655,-32.87591 -27.5,-64.6875 z"
           transform="translate(0,1.0249817e-6)"
           id="path10801"
           inkscape:connector-curvature="0" />
      </g>
      <g
         id="path83">
        <path
           style="fill:#000000"
           inkscape:connector-curvature="0"
           d="m 269.469,324.713 c -21.28,-12.672 -46.08,-23.328 -76.56,-28.8 -30.56,-5.752 -65.36,-9.504 -105.68,-8.064 -8.08,2.016 -13.28,7.2 -15.6,14.408 -2.56,6.624 -2.32,16.408 0.88,28.216 -12.64,0.576 -22.8,1.44 -34.56,3.752 -11.2,1.72 -22.72,3.736 -33.44,7.2 -4.32,12.672 -5.12,25.904 -3.76,39.736 0.88,13.8 2.08,27.32 12.4,41.8 9.84,13.2 25.92,28.16 48.4,41.68 9.2,-8 32.88,-18.72 70.88,-34.24 38.24,-15.52 89.84,-34.8 156.96,-57.872 69.36,11.816 126.96,23.072 175.92,36.832 48.4,13.28 84.96,27.12 112.88,42.64 36.32,-8.88 60.24,-23.36 71.76,-43.2 11.2,-21.008 10.08,-45.488 -3.52,-77.744 l -50.96,-1.16 c -4.32,-17.28 -13.84,-30.232 -29.6,-41.184 -15.84,-11.216 -37.2,-18.144 -64,-23.032 -24.48,6.904 -56.4,14.968 -94.72,25.344 -39.12,9.8 -84.64,21.016 -137.68,33.688 z"
           id="path6419" />
        <path
           style="fill-opacity:0;stroke:#000000;stroke-width:0.28799999;stroke-miterlimit:10"
           inkscape:connector-curvature="0"
           d="m 269.469,324.713 c -21.28,-12.672 -46.08,-23.328 -76.56,-28.8 -30.56,-5.752 -65.36,-9.504 -105.68,-8.064 -8.08,2.016 -13.28,7.2 -15.6,14.408 -2.56,6.624 -2.32,16.408 0.88,28.216 -12.64,0.576 -22.8,1.44 -34.56,3.752 -11.2,1.72 -22.72,3.736 -33.44,7.2 -4.32,12.672 -5.12,25.904 -3.76,39.736 0.88,13.8 2.08,27.32 12.4,41.8 9.84,13.2 25.92,28.16 48.4,41.68 9.2,-8 32.88,-18.72 70.88,-34.24 38.24,-15.52 89.84,-34.8 156.96,-57.872 69.36,11.816 126.96,23.072 175.92,36.832 48.4,13.28 84.96,27.12 112.88,42.64 36.32,-8.88 60.24,-23.36 71.76,-43.2 11.2,-21.008 10.08,-45.488 -3.52,-77.744 l -50.96,-1.16 c -4.32,-17.28 -13.84,-30.232 -29.6,-41.184 -15.84,-11.216 -37.2,-18.144 -64,-23.032 -24.48,6.904 -56.4,14.968 -94.72,25.344 -39.12,9.8 -84.64,21.016 -137.68,33.688 z"
           stroke-miterlimit="10"
           id="path6421" />
      </g>
      <g
         id="path85">
        <path
           style="fill:#9c5c42"
           inkscape:connector-curvature="0"
           d="m 77.389,329.321 c -4.88,-11.8 -5.2,-21.312 -0.88,-27.36 4.08,-6.624 4.08,-11.232 24.48,-10.656 19.92,-0.856 61.36,2.016 92.16,9.8 30.56,7.488 58.8,20.16 87.84,36.856 -46.32,-3.16 -84.96,-4.888 -119.2,-6.328 -34,-1.432 -62.48,-2.592 -84.4,-2.312 z"
           id="path6424" />
        <path
           style="fill-opacity:0;stroke:#000000;stroke-width:0.28799999;stroke-miterlimit:10"
           inkscape:connector-curvature="0"
           d="m 77.389,329.321 c -4.88,-11.8 -5.2,-21.312 -0.88,-27.36 4.08,-6.624 4.08,-11.232 24.48,-10.656 19.92,-0.856 61.36,2.016 92.16,9.8 30.56,7.488 58.8,20.16 87.84,36.856 -46.32,-3.16 -84.96,-4.888 -119.2,-6.328 -34,-1.432 -62.48,-2.592 -84.4,-2.312 z"
           stroke-miterlimit="10"
           id="path6426" />
      </g>
      <g
         id="path87">
        <path
           style="fill:#9c5c42"
           inkscape:connector-curvature="0"
           d="m 12.029,343.449 c 12.64,7.768 23.04,16.984 34.24,28.8 9.84,11.512 25.68,26.472 28.56,41.512 2.56,14.4 -2.32,29.36 -13.52,44.88 18.08,-13.84 45.2,-27.92 84.32,-43.52 38.88,-16.4 86.4,-31.936 146.08,-50.08 3.12,-5.768 4.32,-10.376 4.56,-13.832 -0.24,-4.032 -2,-6.904 -5.2,-8.64 -40.32,-3.456 -80,-6.328 -118.08,-7.488 -39.12,-2.592 -84.96,-3.168 -111.68,-1.736 -27.12,1.168 -43.52,4.92 -49.28,10.104 z"
           id="path6429" />
        <path
           style="fill-opacity:0;stroke:#000000;stroke-width:0.28799999;stroke-miterlimit:10"
           inkscape:connector-curvature="0"
           d="m 12.029,343.449 c 12.64,7.768 23.04,16.984 34.24,28.8 9.84,11.512 25.68,26.472 28.56,41.512 2.56,14.4 -2.32,29.36 -13.52,44.88 18.08,-13.84 45.2,-27.92 84.32,-43.52 38.88,-16.4 86.4,-31.936 146.08,-50.08 3.12,-5.768 4.32,-10.376 4.56,-13.832 -0.24,-4.032 -2,-6.904 -5.2,-8.64 -40.32,-3.456 -80,-6.328 -118.08,-7.488 -39.12,-2.592 -84.96,-3.168 -111.68,-1.736 -27.12,1.168 -43.52,4.92 -49.28,10.104 z"
           stroke-miterlimit="10"
           id="path6431" />
      </g>
      <g
         id="path89">
        <path
           style="fill:#9c5c42"
           inkscape:connector-curvature="0"
           d="m 641.629,333.649 c -33.76,-1.16 -69.76,-0.576 -108,-0.576 -39.76,-0.28 -85.84,-0.28 -123.84,2.296 -37.76,2.016 -71.2,5.184 -101.44,10.656 -2.56,1.736 -3.68,4.608 -3.44,8.64 0,4.032 1.44,7.504 4.32,13.544 49.28,5.752 96.16,14.688 142,27.952 45.76,13.2 88.16,29.36 130.48,50.64 -9.52,-22.16 -14.4,-40.56 -11.52,-55.264 2.56,-14.984 12.08,-26.8 25.04,-35.424 12.4,-9.792 26.8,-17.272 46.4,-22.464 z"
           id="path6434" />
        <path
           style="fill-opacity:0;stroke:#000000;stroke-width:0.28799999;stroke-miterlimit:10"
           inkscape:connector-curvature="0"
           d="m 641.629,333.649 c -33.76,-1.16 -69.76,-0.576 -108,-0.576 -39.76,-0.28 -85.84,-0.28 -123.84,2.296 -37.76,2.016 -71.2,5.184 -101.44,10.656 -2.56,1.736 -3.68,4.608 -3.44,8.64 0,4.032 1.44,7.504 4.32,13.544 49.28,5.752 96.16,14.688 142,27.952 45.76,13.2 88.16,29.36 130.48,50.64 -9.52,-22.16 -14.4,-40.56 -11.52,-55.264 2.56,-14.984 12.08,-26.8 25.04,-35.424 12.4,-9.792 26.8,-17.272 46.4,-22.464 z"
           stroke-miterlimit="10"
           id="path6436" />
      </g>
      <g
         id="path91">
        <path
           style="fill:#9c5c42"
           inkscape:connector-curvature="0"
           d="m 284.429,326.729 c 39.76,-10.08 76.08,-18.424 113.2,-28.216 36.88,-9.504 70.32,-18.72 104.56,-27.64 25.04,2.872 44.64,7.768 58.72,17.84 14.16,9.216 22.8,22.184 25.92,38.888 -47.2,-1.16 -94.72,-2.016 -142.56,0.576 -48.32,1.144 -95.84,5.752 -144.8,10.656 -4.88,-4.024 -9.84,-8.056 -15.04,-12.104 z"
           id="path6439" />
        <path
           style="fill-opacity:0;stroke:#000000;stroke-width:0.28799999;stroke-miterlimit:10"
           inkscape:connector-curvature="0"
           d="m 284.429,326.729 c 39.76,-10.08 76.08,-18.424 113.2,-28.216 36.88,-9.504 70.32,-18.72 104.56,-27.64 25.04,2.872 44.64,7.768 58.72,17.84 14.16,9.216 22.8,22.184 25.92,38.888 -47.2,-1.16 -94.72,-2.016 -142.56,0.576 -48.32,1.144 -95.84,5.752 -144.8,10.656 -4.88,-4.024 -9.84,-8.056 -15.04,-12.104 z"
           stroke-miterlimit="10"
           id="path6441" />
      </g>
      <g
         id="path93">
        <path
           style="fill:#000000"
           inkscape:connector-curvature="0"
           d="m 463.629,312.921 c 16.72,-6.624 33.12,-9.8 49.2,-12.672 15.84,-2.888 31.12,-3.752 46.96,-2.592 -25.92,4.032 -47.2,7.488 -62.8,10.36 -16.08,2.888 -27.6,3.464 -33.36,4.904 z"
           id="path6444" />
        <path
           style="fill-opacity:0;stroke:#000000;stroke-width:0.28799999;stroke-miterlimit:10"
           inkscape:connector-curvature="0"
           d="m 463.629,312.921 c 16.72,-6.624 33.12,-9.8 49.2,-12.672 15.84,-2.888 31.12,-3.752 46.96,-2.592 -25.92,4.032 -47.2,7.488 -62.8,10.36 -16.08,2.888 -27.6,3.464 -33.36,4.904 z"
           stroke-miterlimit="10"
           id="path6446" />
      </g>
      <g
         id="path95">
        <path
           style="fill:#f8d3a0"
           inkscape:connector-curvature="0"
           d="m 7.389,354.969 c -0.8,16.128 -1.44,30.528 1.44,42.072 1.76,11.52 3.52,18.72 11.84,28.16 7.76,9.28 19.28,18.72 35.68,28.56 9.52,-8.96 14.16,-19.04 13.84,-30.24 -1.12,-12.64 -8.08,-27.12 -18.4,-38.896 -10.08,-11.8 -25.92,-21.312 -44.4,-29.656 z"
           id="path6449" />
        <path
           style="fill-opacity:0;stroke:#000000;stroke-width:0.28799999;stroke-miterlimit:10"
           inkscape:connector-curvature="0"
           d="m 7.389,354.969 c -0.8,16.128 -1.44,30.528 1.44,42.072 1.76,11.52 3.52,18.72 11.84,28.16 7.76,9.28 19.28,18.72 35.68,28.56 9.52,-8.96 14.16,-19.04 13.84,-30.24 -1.12,-12.64 -8.08,-27.12 -18.4,-38.896 -10.08,-11.8 -25.92,-21.312 -44.4,-29.656 z"
           stroke-miterlimit="10"
           id="path6451" />
      </g>
      <g
         id="path97">
        <path
           style="fill:#f8d3a0"
           inkscape:connector-curvature="0"
           d="m 576.509,399.921 c 2.88,15.2 5.76,30.48 8.88,45.76 21.36,-6 35.76,-13.2 47.52,-22.72 9.84,-10.08 16.16,-19.92 17.84,-34.008 2.32,-14.112 0.64,-31.392 -4,-50.688 -24.48,5.184 -42.08,13.528 -53.84,23.904 -11.84,9.784 -17.28,22.752 -16.4,37.752 z"
           id="path6454" />
        <path
           style="fill-opacity:0;stroke:#000000;stroke-width:0.28799999;stroke-miterlimit:10"
           inkscape:connector-curvature="0"
           d="m 576.509,399.921 c 2.88,15.2 5.76,30.48 8.88,45.76 21.36,-6 35.76,-13.2 47.52,-22.72 9.84,-10.08 16.16,-19.92 17.84,-34.008 2.32,-14.112 0.64,-31.392 -4,-50.688 -24.48,5.184 -42.08,13.528 -53.84,23.904 -11.84,9.784 -17.28,22.752 -16.4,37.752 z"
           stroke-miterlimit="10"
           id="path6456" />
      </g>
      <g
         id="path99">
        <path
           style="fill:#000000"
           inkscape:connector-curvature="0"
           d="m 18.029,376.857 c 0.64,14.688 3.52,26.184 8.64,36.824 4.08,9.52 15.28,22.8 20.48,24.24 5.52,1.44 11.2,-9.28 10.64,-17.6 -2.88,-9.76 -15.84,-34.264 -21.04,-38 -5.44,-4.032 -7.76,6.624 -6.88,14.08 0.88,6.96 11.2,26.24 13.28,28 2.24,0.56 0.56,-7.2 -2.08,-23.36 4.64,10.96 6.96,18.72 8.08,23.36 0,3.76 -1.12,4.56 -3.44,3.76 -3.2,-1.2 -6.64,-3.2 -10.4,-9.52 -3.44,-7.52 -12.64,-25.92 -10.88,-32 0.56,-6.328 10.08,-11.512 16.08,-6.624 5.52,4.904 14.16,21.024 18.16,31.664 3.44,8.96 3.76,19.36 2,24.48 -2.88,5.2 -11.2,6.64 -17.28,4.32 -7.76,-4.32 -17.28,-14.96 -21.84,-25.28 -4.32,-10.4 -5.52,-23.952 -3.52,-38.344 z"
           id="path6459" />
        <path
           style="fill-opacity:0;stroke:#000000;stroke-width:0.28799999;stroke-miterlimit:10"
           inkscape:connector-curvature="0"
           d="m 18.029,376.857 c 0.64,14.688 3.52,26.184 8.64,36.824 4.08,9.52 15.28,22.8 20.48,24.24 5.52,1.44 11.2,-9.28 10.64,-17.6 -2.88,-9.76 -15.84,-34.264 -21.04,-38 -5.44,-4.032 -7.76,6.624 -6.88,14.08 0.88,6.96 11.2,26.24 13.28,28 2.24,0.56 0.56,-7.2 -2.08,-23.36 4.64,10.96 6.96,18.72 8.08,23.36 0,3.76 -1.12,4.56 -3.44,3.76 -3.2,-1.2 -6.64,-3.2 -10.4,-9.52 -3.44,-7.52 -12.64,-25.92 -10.88,-32 0.56,-6.328 10.08,-11.512 16.08,-6.624 5.52,4.904 14.16,21.024 18.16,31.664 3.44,8.96 3.76,19.36 2,24.48 -2.88,5.2 -11.2,6.64 -17.28,4.32 -7.76,-4.32 -17.28,-14.96 -21.84,-25.28 -4.32,-10.4 -5.52,-23.952 -3.52,-38.344 z"
           stroke-miterlimit="10"
           id="path6461" />
      </g>
      <g
         id="path101">
        <path
           style="fill:#000000"
           inkscape:connector-curvature="0"
           d="m 50.909,352.369 c 55.84,-3.456 95.36,-5.472 123.84,-4.888 26.8,0 41.44,2.016 40.88,6.048 -47.84,-0.296 -83.52,0 -111.44,-0.296 -27.36,-0.584 -45.52,-0.864 -53.28,-0.864 z"
           id="path6464" />
        <path
           style="fill-opacity:0;stroke:#000000;stroke-width:0.28799999;stroke-miterlimit:10"
           inkscape:connector-curvature="0"
           d="m 50.909,352.369 c 55.84,-3.456 95.36,-5.472 123.84,-4.888 26.8,0 41.44,2.016 40.88,6.048 -47.84,-0.296 -83.52,0 -111.44,-0.296 -27.36,-0.584 -45.52,-0.864 -53.28,-0.864 z"
           stroke-miterlimit="10"
           id="path6466" />
      </g>
      <g
         id="path103">
        <path
           style="fill:#000000"
           inkscape:connector-curvature="0"
           d="m 66.189,369.073 c 17.28,2.872 40,3.456 69.36,1.736 28.8,-2.016 63.36,-6.344 103.68,-12.968 -39.68,11.512 -73.44,18.72 -102.24,20.456 -29.04,2.016 -52.64,-1.44 -70.8,-9.224 z"
           id="path6469" />
        <path
           style="fill-opacity:0;stroke:#000000;stroke-width:0.28799999;stroke-miterlimit:10"
           inkscape:connector-curvature="0"
           d="m 66.189,369.073 c 17.28,2.872 40,3.456 69.36,1.736 28.8,-2.016 63.36,-6.344 103.68,-12.968 -39.68,11.512 -73.44,18.72 -102.24,20.456 -29.04,2.016 -52.64,-1.44 -70.8,-9.224 z"
           stroke-miterlimit="10"
           id="path6471" />
      </g>
      <g
         id="path105">
        <path
           style="fill:#000000"
           inkscape:connector-curvature="0"
           d="m 91.789,400.721 c 19.6,0.88 40.64,-1.44 63.12,-5.76 22.16,-5.736 57.28,-18.984 69.92,-23.016 11.52,-4.032 11.52,-4.032 0,0 -19.28,9.512 -37.68,17.856 -57.6,23.896 -20.72,6.08 -47.52,10.4 -60.16,11.84 -12.72,0.56 -18.16,-1.76 -15.28,-6.96 z"
           id="path6474" />
        <path
           style="fill-opacity:0;stroke:#000000;stroke-width:0.28799999;stroke-miterlimit:10"
           inkscape:connector-curvature="0"
           d="m 91.789,400.721 c 19.6,0.88 40.64,-1.44 63.12,-5.76 22.16,-5.736 57.28,-18.984 69.92,-23.016 11.52,-4.032 11.52,-4.032 0,0 -19.28,9.512 -37.68,17.856 -57.6,23.896 -20.72,6.08 -47.52,10.4 -60.16,11.84 -12.72,0.56 -18.16,-1.76 -15.28,-6.96 z"
           stroke-miterlimit="10"
           id="path6476" />
      </g>
      <g
         id="path107">
        <path
           style="fill:#000000"
           inkscape:connector-curvature="0"
           d="m 385.549,349.777 c 35.12,4.328 67.12,7.488 97.04,10.656 29.68,2.872 56.16,4.608 80.64,6.344 -48.08,-1.736 -85.84,-3.472 -115.44,-6.344 -30.56,-3.168 -49.84,-6.328 -62.24,-10.656 z"
           id="path6479" />
        <path
           style="fill-opacity:0;stroke:#000000;stroke-width:0.28799999;stroke-miterlimit:10"
           inkscape:connector-curvature="0"
           d="m 385.549,349.777 c 35.12,4.328 67.12,7.488 97.04,10.656 29.68,2.872 56.16,4.608 80.64,6.344 -48.08,-1.736 -85.84,-3.472 -115.44,-6.344 -30.56,-3.168 -49.84,-6.328 -62.24,-10.656 z"
           stroke-miterlimit="10"
           id="path6481" />
      </g>
      <g
         id="path109">
        <path
           style="fill:#000000"
           inkscape:connector-curvature="0"
           d="m 403.389,371.665 c 46.64,2.872 82.4,6.328 109.44,11.512 26.56,4.608 43.2,10.344 50.16,17.304 -38.32,-8.944 -68.88,-14.432 -95.92,-19.6 -26.48,-5.48 -48.08,-7.496 -63.68,-9.216 z"
           id="path6484" />
        <path
           style="fill-opacity:0;stroke:#000000;stroke-width:0.28799999;stroke-miterlimit:10"
           inkscape:connector-curvature="0"
           d="m 403.389,371.665 c 46.64,2.872 82.4,6.328 109.44,11.512 26.56,4.608 43.2,10.344 50.16,17.304 -38.32,-8.944 -68.88,-14.432 -95.92,-19.6 -26.48,-5.48 -48.08,-7.496 -63.68,-9.216 z"
           stroke-miterlimit="10"
           id="path6486" />
      </g>
      <g
         id="path111">
        <path
           style="fill:#000000"
           inkscape:connector-curvature="0"
           d="m 452.349,346.609 c 32,-0.576 58.24,-0.576 81.84,0 23.28,0.576 40.88,1.736 55.84,3.456 -47.52,-1.144 -82.64,-1.44 -105.36,-2.016 -23.36,-0.568 -33.76,-1.44 -32.32,-1.44 z"
           id="path6489" />
        <path
           style="fill-opacity:0;stroke:#000000;stroke-width:0.28799999;stroke-miterlimit:10"
           inkscape:connector-curvature="0"
           d="m 452.349,346.609 c 32,-0.576 58.24,-0.576 81.84,0 23.28,0.576 40.88,1.736 55.84,3.456 -47.52,-1.144 -82.64,-1.44 -105.36,-2.016 -23.36,-0.568 -33.76,-1.44 -32.32,-1.44 z"
           stroke-miterlimit="10"
           id="path6491" />
      </g>
      <g
         id="path113">
        <path
           style="fill:#000000"
           inkscape:connector-curvature="0"
           d="m 223.389,321.265 c -19.28,-8.344 -38.88,-13.248 -58.72,-16.984 -20.48,-3.752 -41.2,-5.184 -62.24,-4.328 30.24,2.888 55.6,6.624 76.08,10.08 19.84,3.464 34.8,7.2 44.88,11.232 z"
           id="path6494" />
        <path
           style="fill-opacity:0;stroke:#000000;stroke-width:0.28799999;stroke-miterlimit:10"
           inkscape:connector-curvature="0"
           d="m 223.389,321.265 c -19.28,-8.344 -38.88,-13.248 -58.72,-16.984 -20.48,-3.752 -41.2,-5.184 -62.24,-4.328 30.24,2.888 55.6,6.624 76.08,10.08 19.84,3.464 34.8,7.2 44.88,11.232 z"
           stroke-miterlimit="10"
           id="path6496" />
      </g>
      <g
         id="path115">
        <path
           style="fill:#000000"
           inkscape:connector-curvature="0"
           d="m 631.229,358.697 c -17.84,4.328 -29.68,10.656 -36.56,22.184 -7.76,10.36 -11.28,36.24 -4.88,42.32 6,5.44 21.6,1.76 44.32,-10.08 -20.16,10.08 -32.56,12.96 -38.32,8.64 -5.76,-5.2 -2.56,-24.16 4.08,-34.832 6,-10.368 16.08,-20.152 31.36,-28.232 z"
           id="path6499" />
        <path
           style="fill-opacity:0;stroke:#000000;stroke-width:0.28799999;stroke-miterlimit:10"
           inkscape:connector-curvature="0"
           d="m 631.229,358.697 c -17.84,4.328 -29.68,10.656 -36.56,22.184 -7.76,10.36 -11.28,36.24 -4.88,42.32 6,5.44 21.6,1.76 44.32,-10.08 -20.16,10.08 -32.56,12.96 -38.32,8.64 -5.76,-5.2 -2.56,-24.16 4.08,-34.832 6,-10.368 16.08,-20.152 31.36,-28.232 z"
           stroke-miterlimit="10"
           id="path6501" />
      </g>
      <g
         id="path117">
        <path
           style="fill:#000000"
           inkscape:connector-curvature="0"
           d="m 629.229,371.089 c -6.32,7.784 -11.52,14.112 -14.4,20.16 -3.76,4.912 -10.08,12.112 -5.76,13.872 4.56,1.68 13.84,0.24 30.8,-3.2 -12.64,3.2 -19.28,1.76 -21.04,-3.2 -2,-6.08 1.44,-13.8 10.4,-27.632 z"
           id="path6504" />
        <path
           style="fill-opacity:0;stroke:#000000;stroke-width:0.28799999;stroke-miterlimit:10"
           inkscape:connector-curvature="0"
           d="m 629.229,371.089 c -6.32,7.784 -11.52,14.112 -14.4,20.16 -3.76,4.912 -10.08,12.112 -5.76,13.872 4.56,1.68 13.84,0.24 30.8,-3.2 -12.64,3.2 -19.28,1.76 -21.04,-3.2 -2,-6.08 1.44,-13.8 10.4,-27.632 z"
           stroke-miterlimit="10"
           id="path6506" />
      </g>
      <g
         id="path119">
        <path
           style="fill:#000000"
           inkscape:connector-curvature="0"
           d="m 218.509,410.561 c -3.44,2.56 -20.72,8.96 -21.84,14.4 -0.64,4.88 6.88,11.52 17.84,15.52 10.08,3.2 37.12,7.84 42.32,4.88 3.2,-4.32 -16.96,-18.4 -18.16,-26.8 -1.12,-8.88 14.08,-22.4 10.4,-23.84 -5.52,-2.08 -32.56,10.64 -38.08,13.52 -5.68,1.44 10.08,0 7.52,2.32 z"
           id="path6509" />
        <path
           style="fill-opacity:0;stroke:#000000;stroke-width:0.28799999;stroke-miterlimit:10"
           inkscape:connector-curvature="0"
           d="m 218.509,410.561 c -3.44,2.56 -20.72,8.96 -21.84,14.4 -0.64,4.88 6.88,11.52 17.84,15.52 10.08,3.2 37.12,7.84 42.32,4.88 3.2,-4.32 -16.96,-18.4 -18.16,-26.8 -1.12,-8.88 14.08,-22.4 10.4,-23.84 -5.52,-2.08 -32.56,10.64 -38.08,13.52 -5.68,1.44 10.08,0 7.52,2.32 z"
           stroke-miterlimit="10"
           id="path6511" />
      </g>
      <g
         id="path121">
        <path
           style="fill:#000000"
           inkscape:connector-curvature="0"
           d="m 262.909,400.481 c -5.2,4.56 -1.2,12.08 5.44,14.64 5.44,1.76 23.92,2.88 29.68,-2 5.2,-5.76 8.32,-27.92 2.88,-29.936 -6.96,-2.296 -32.56,11.216 -38,17.296 z"
           id="path6514" />
        <path
           style="fill-opacity:0;stroke:#000000;stroke-width:0.28799999;stroke-miterlimit:10"
           inkscape:connector-curvature="0"
           d="m 262.909,400.481 c -5.2,4.56 -1.2,12.08 5.44,14.64 5.44,1.76 23.92,2.88 29.68,-2 5.2,-5.76 8.32,-27.92 2.88,-29.936 -6.96,-2.296 -32.56,11.216 -38,17.296 z"
           stroke-miterlimit="10"
           id="path6516" />
      </g>
      <g
         id="path123">
        <path
           style="fill:#000000"
           inkscape:connector-curvature="0"
           d="m 321.309,405.041 c -5.44,3.2 -1.68,24.56 3.52,28.56 4.88,3.12 17.84,-0.56 24.48,-4.64 5.44,-3.76 10.32,-15.52 6.88,-18.72 -5.2,-4 -29.36,-9.76 -34.88,-5.2 z"
           id="path6519" />
        <path
           style="fill-opacity:0;stroke:#000000;stroke-width:0.28799999;stroke-miterlimit:10"
           inkscape:connector-curvature="0"
           d="m 321.309,405.041 c -5.44,3.2 -1.68,24.56 3.52,28.56 4.88,3.12 17.84,-0.56 24.48,-4.64 5.44,-3.76 10.32,-15.52 6.88,-18.72 -5.2,-4 -29.36,-9.76 -34.88,-5.2 z"
           stroke-miterlimit="10"
           id="path6521" />
      </g>
      <g
         id="path125">
        <path
           style="fill:#000000"
           inkscape:connector-curvature="0"
           d="m 380.669,400.721 c -2.88,5.76 4.64,26.8 13.52,33.12 8.4,5.2 30.24,7.2 34.56,1.44 2.32,-6.32 -6.64,-29.92 -14.72,-35.36 -9.2,-6.32 -29.6,-4.96 -33.36,0.8 z"
           id="path6524" />
        <path
           style="fill-opacity:0;stroke:#000000;stroke-width:0.28799999;stroke-miterlimit:10"
           inkscape:connector-curvature="0"
           d="m 380.669,400.721 c -2.88,5.76 4.64,26.8 13.52,33.12 8.4,5.2 30.24,7.2 34.56,1.44 2.32,-6.32 -6.64,-29.92 -14.72,-35.36 -9.2,-6.32 -29.6,-4.96 -33.36,0.8 z"
           stroke-miterlimit="10"
           id="path6526" />
      </g>
      <g
         id="path127">
        <path
           style="fill:#000000"
           inkscape:connector-curvature="0"
           d="m 448.349,418.641 c -1.76,4 -2.88,21.84 4.32,25.92 5.76,3.12 32.8,-0.64 34.56,-4.64 0.88,-5.2 -17.6,-17.52 -24.16,-21.6 -7.84,-4 -12.72,-4.32 -14.72,0.32 z"
           id="path6529" />
        <path
           style="fill-opacity:0;stroke:#000000;stroke-width:0.28799999;stroke-miterlimit:10"
           inkscape:connector-curvature="0"
           d="m 448.349,418.641 c -1.76,4 -2.88,21.84 4.32,25.92 5.76,3.12 32.8,-0.64 34.56,-4.64 0.88,-5.2 -17.6,-17.52 -24.16,-21.6 -7.84,-4 -12.72,-4.32 -14.72,0.32 z"
           stroke-miterlimit="10"
           id="path6531" />
      </g>
    </g>
  </g>
  <g
     inkscape:groupmode="layer"
     id="layer9"
     inkscape:label="Layer 2"
     style="display:inline" />
</svg>
